<svg width="216" height="200" viewBox="0 0 216 200" fill="none" xmlns="http://www.w3.org/2000/svg">
<path d="M212.836 146.645C214.584 146.645 216 145.229 216 143.481V107.317C216 104.135 213.406 101.546 210.217 101.546H198.528V93.8769C203.649 92.483 207.426 87.7951 207.426 82.2395V74.5377C207.426 71.7512 205.165 69.4841 202.384 69.4841H188.357C185.576 69.4841 183.315 71.7512 183.315 74.5377V82.2395C183.315 87.7943 187.087 92.4813 192.201 93.876V101.547H167.484V93.8773C172.604 92.4834 176.381 87.7956 176.381 82.2399V74.5381C176.381 71.7516 174.115 69.4845 171.328 69.4845H157.312C154.525 69.4845 152.258 71.7516 152.258 74.5381V82.2399C152.258 87.7956 156.035 92.4834 161.155 93.8773V101.547H142.849V68.8454C142.849 61.9713 140.361 59.4595 138.544 57.6252C137.625 56.6983 137.136 56.2039 136.917 55.1441V52.6289V39.809C136.917 36.6926 134.382 34.1575 131.266 34.1575H122.691C119.575 34.1575 117.04 36.693 117.04 39.809V52.6289V55.1441C116.82 56.2043 116.331 56.6983 115.413 57.6252C113.596 59.4595 111.108 61.9713 111.108 68.8454V101.547H99.7258V80.7688C99.7258 70.0325 94.4831 67.3996 85.9279 63.9921L72.5553 58.6723C78.5498 53.1065 82.6246 45.6258 82.6246 38.9239V33.6821C89.1219 30.499 93.6681 23.7866 96.4626 13.284C96.5026 13.1334 96.5313 12.9794 96.549 12.8246C96.7051 11.4353 96.1407 10.1646 95.0387 9.42595C92.9867 8.05106 90.9795 9.15384 87.6542 10.9806C86.5569 11.583 85.1576 12.3516 83.7101 13.0326C84.9133 9.82293 85.5052 6.54665 85.2082 4.06096C85.0892 3.09107 84.8897 1.46727 83.2494 0.634915C81.8724 -0.0632882 80.6448 0.421868 79.391 1.06987C71.2825 5.31899 68.8534 4.52207 64.8308 3.20245C62.8716 2.55993 60.434 1.76006 57.1565 1.46263C47.0024 0.539993 38.6324 2.91641 32.9548 8.33413C27.4485 13.5877 24.7565 21.562 25.1615 31.3968V38.9239C25.1615 45.6064 29.2123 53.0639 35.1747 58.6246L21.6894 63.9925C13.1283 67.4025 7.88147 70.0371 7.88147 80.7688V101.547H5.77125C2.58905 101.547 0 104.136 0 107.318V193.937C0 197.119 2.58905 199.708 5.77125 199.708H210.217C213.406 199.708 216 197.119 216 193.937V158.096C216 156.348 214.584 154.931 212.836 154.931C211.088 154.931 209.672 156.348 209.672 158.096V193.38H172.041L169.884 181.255H187.555C189.26 181.255 191.045 180.174 191.192 177.754C191.348 175.146 193.438 173.034 196.05 172.84C198.176 172.684 199.605 171.118 199.605 168.943V132.324C199.605 130.141 198.176 128.571 196.053 128.415C193.438 128.221 191.348 126.108 191.192 123.498C191.046 121.081 189.26 120 187.555 120L115.325 120.012C113.577 120.012 112.161 121.429 112.161 123.176C112.161 124.924 113.578 126.34 115.325 126.34L185.291 126.328C186.383 130.17 189.424 133.216 193.277 134.316V166.939C189.427 168.038 186.388 171.082 185.293 174.928H168.76L165.471 156.433C170.394 155.731 174.193 151.485 174.193 146.364C174.193 140.762 169.635 136.204 164.033 136.204H136.014C130.405 136.204 125.842 140.762 125.842 146.364C125.842 151.485 129.646 155.732 134.575 156.433L131.281 174.928H84.7079L81.4134 156.433C86.343 155.732 90.1462 151.485 90.1462 146.364C90.1462 140.762 85.5837 136.204 79.9748 136.204H51.9674C46.3586 136.204 41.7956 140.762 41.7956 146.364C41.7956 151.485 45.5992 155.732 50.5284 156.433L47.2344 174.928H30.7045C29.6055 171.086 26.5617 168.04 22.7116 166.94V134.316C26.5532 133.218 29.5933 130.178 30.6994 126.328L100.723 126.34H100.723C102.47 126.34 103.887 124.924 103.887 123.176C103.888 121.429 102.471 120.012 100.724 120.012L28.4331 120C26.7346 120 24.9548 121.081 24.8088 123.492C24.6447 126.105 22.5501 128.222 19.9387 128.415C17.8124 128.571 16.3835 130.142 16.3835 132.324V168.943C16.3835 171.119 17.8124 172.685 19.9357 172.84C22.5496 173.034 24.6447 175.151 24.8084 177.757C24.9548 180.174 26.7342 181.256 28.4331 181.256H46.1076L43.948 193.38H6.32812V107.874H209.672V143.481C209.672 145.229 211.088 146.645 212.836 146.645ZM189.643 82.2395V75.8122H201.097V82.2395C201.097 85.401 198.525 87.9727 195.364 87.9727C192.21 87.9727 189.643 85.4006 189.643 82.2395ZM158.586 82.2395V75.8122H170.053V82.2395C170.053 85.401 167.481 87.9727 164.319 87.9727C161.158 87.9727 158.586 85.4006 158.586 82.2395ZM165.613 193.379H134.421L136.58 181.255H163.457L165.613 193.379ZM132.17 146.364C132.17 144.251 133.894 142.532 136.013 142.532H164.032C166.145 142.532 167.864 144.251 167.864 146.364C167.864 148.483 166.145 150.208 164.032 150.208H136.013C133.894 150.208 132.17 148.483 132.17 146.364ZM140.984 156.536H159.062L162.332 174.927H137.708L140.984 156.536ZM130.153 181.255L127.993 193.379H87.9947L85.8351 181.255H130.153ZM48.1237 146.364C48.1237 144.251 49.8479 142.532 51.9674 142.532H79.9748C82.0939 142.532 83.8181 144.251 83.8181 146.364C83.8181 148.483 82.0939 150.208 79.9748 150.208H51.9674C49.8479 150.208 48.1237 148.483 48.1237 146.364ZM56.9379 156.536H75.0043L78.2802 174.927H53.6621L56.9379 156.536ZM52.5353 181.255H79.4074L81.567 193.379H50.3757L52.5353 181.255ZM117.437 77.1398H136.52V86.5017H117.437V77.1398ZM123.328 55.9305C123.335 55.8849 123.333 55.8385 123.339 55.7925H130.618C130.623 55.8385 130.622 55.8849 130.629 55.9305C131.147 59.1507 132.824 60.8428 134.048 62.0785C135.429 63.4732 136.52 64.5747 136.52 68.8454V70.8117H117.437V68.8454C117.437 64.5747 118.527 63.4732 119.909 62.0785C121.133 60.8432 122.809 59.1507 123.328 55.9305ZM123.368 40.4852H130.589V49.4648H123.368V40.4852ZM117.437 92.8298H136.52V101.546H117.437V92.8298ZM44.4407 64.846C45.0904 65.135 45.7464 65.4016 46.4092 65.6387C49.116 66.6153 51.4941 67.0705 53.8928 67.0705C56.2975 67.0705 58.6735 66.6149 61.355 65.6425C61.9646 65.4248 62.5679 65.1797 63.1661 64.9181V66.8128C63.1661 72.4604 59.0064 77.0546 53.8933 77.0546C48.6814 77.0546 44.4412 72.46 44.4412 66.8128V64.846H44.4407ZM37.3237 12.9119C41.6412 8.79229 48.3034 7.0124 56.5848 7.76418C59.146 7.99663 61.0335 8.61552 62.8585 9.21459C67.5316 10.7477 71.3585 11.5433 78.5299 8.49065C77.9296 10.8797 76.7277 13.6852 75.063 15.9338C74.3854 16.8501 74.2521 18.06 74.7153 19.1012C75.1785 20.1424 76.1657 20.8545 77.3002 20.9651C80.9059 21.3156 84.9049 19.5902 88.279 17.8322C81.9568 32.832 70.9691 30.291 57.4433 27.1607C51.8362 25.8635 46.1312 24.543 40.6422 24.543C37.5389 24.543 34.5043 24.9653 31.598 26.0529C32.13 20.4457 34.0466 16.0384 37.3237 12.9119ZM31.4896 38.9234V33.0906C38.2092 29.2056 46.8758 31.2111 56.0174 33.3264C61.4436 34.5819 66.9971 35.867 72.3014 35.867C73.6514 35.867 74.9849 35.7801 76.2969 35.5915V38.9234C76.2969 46.5974 68.1611 56.492 59.2123 59.6877C57.2299 60.407 55.5394 60.742 53.8937 60.742C52.2501 60.742 50.5545 60.4066 48.5494 59.6831C39.6204 56.4907 31.4896 46.5961 31.4896 38.9234ZM14.2092 80.7684C14.2092 74.3428 15.8186 73.1422 24.03 69.8714L38.1126 64.2655V66.8119C38.1126 75.9489 45.1917 83.3819 53.8928 83.3819C62.4953 83.3819 69.4938 75.9485 69.4938 66.8119V64.2646L83.5869 69.8709C91.7895 73.1379 93.3972 74.3377 93.3972 80.768V101.546H81.1177V90.1078C81.1177 88.3604 79.7015 86.9438 77.9536 86.9438C76.2058 86.9438 74.7896 88.3604 74.7896 90.1078V101.546H33.0915V90.1078C33.0915 88.3604 31.6752 86.9438 29.9274 86.9438C28.1796 86.9438 26.7633 88.3604 26.7633 90.1078V101.546H14.2092V80.7684Z" fill="white"/>
</svg>
